<svg width="32" height="32" viewBox="0 0 32 32" fill="none" xmlns="http://www.w3.org/2000/svg">
<path d="M6 7.4325C6 6.64125 6.6575 6 7.46875 6H24.5312C25.3425 6 26 6.64125 26 7.4325V24.5675C26 25.3588 25.3425 26 24.5312 26H7.46875C6.6575 26 6 25.3588 6 24.5675V7.4325ZM12.1788 22.7425V13.7113H9.1775V22.7425H12.1788ZM10.6788 12.4775C11.725 12.4775 12.3762 11.785 12.3762 10.9175C12.3575 10.0312 11.7263 9.3575 10.6988 9.3575C9.67125 9.3575 9 10.0325 9 10.9175C9 11.785 9.65125 12.4775 10.6588 12.4775H10.6788ZM16.8138 22.7425V17.6988C16.8138 17.4288 16.8337 17.1587 16.9137 16.9662C17.13 16.4275 17.6238 15.8687 18.4538 15.8687C19.54 15.8687 19.9738 16.6963 19.9738 17.9113V22.7425H22.975V17.5625C22.975 14.7875 21.495 13.4975 19.52 13.4975C17.9275 13.4975 17.2138 14.3725 16.8138 14.9888V15.02H16.7938L16.8138 14.9888V13.7113H13.8137C13.8512 14.5588 13.8137 22.7425 13.8137 22.7425H16.8138Z" fill="#ABB2BF"/>
</svg>
