<svg width="22" height="21" viewBox="0 0 22 21" fill="none" xmlns="http://www.w3.org/2000/svg">
<path fill-rule="evenodd" clip-rule="evenodd" d="M2.80112 0.900482C4.17403 -0.473006 6.43476 -0.228956 7.5843 1.31707L9.00797 3.2286C9.9443 4.48631 9.86082 6.24346 8.74963 7.35474L8.48114 7.6249C8.45083 7.73832 8.44774 7.85738 8.47212 7.97224C8.54319 8.43537 8.92788 9.41611 10.5388 11.028C12.1498 12.6398 13.1312 13.0258 13.5982 13.0984C13.7158 13.1236 13.8376 13.1201 13.9536 13.0882L14.4139 12.6273C15.4021 11.6398 16.9183 11.4548 18.1411 12.1234L20.2958 13.3039C22.1425 14.3119 22.6084 16.8364 21.0968 18.3495L19.4937 19.9522C18.9883 20.4574 18.3092 20.8785 17.4812 20.9568C15.4393 21.1486 10.6821 20.9035 5.68118 15.901C1.0142 11.2312 0.118482 7.15837 0.0045429 5.15148C-0.0518625 4.13669 0.424199 3.27855 1.03112 2.6724L2.80112 0.900482ZM6.23057 2.33754C5.65862 1.56906 4.59369 1.50777 3.99353 2.10824L2.2224 3.87902C1.85013 4.25134 1.67189 4.66225 1.69445 5.055C1.7847 6.64984 2.50669 10.3242 6.87472 14.6944C11.4571 19.278 15.6886 19.4153 17.3244 19.261C17.6583 19.2303 17.99 19.0555 18.3002 18.7456L19.9021 17.1417C20.5542 16.4901 20.4109 15.3028 19.4881 14.7988L17.3334 13.6194C16.7378 13.2948 16.0406 13.4015 15.6074 13.8351L15.0941 14.3493L14.4962 13.7454C15.0941 14.3493 15.0919 14.3504 15.0919 14.3504L15.0907 14.3527L15.0873 14.3561L15.0794 14.3629L15.0625 14.3788C15.0146 14.4229 14.9633 14.4631 14.9091 14.4991C14.8189 14.5593 14.6993 14.6263 14.5492 14.6819C14.2446 14.7965 13.8408 14.8578 13.3422 14.7807C12.3641 14.6297 11.0679 13.9588 9.34528 12.2357C7.62378 10.5126 6.95143 9.21633 6.80026 8.23332C6.72242 7.7316 6.78447 7.32523 6.89954 7.01875C6.96335 6.84651 7.05397 6.68558 7.16803 6.542L7.20413 6.50227L7.21992 6.48524L7.22669 6.47843L7.23007 6.47503L7.23233 6.47276L7.55723 6.14811C8.04006 5.66342 8.10774 4.8609 7.65311 4.24907L6.23057 2.33754Z" fill="#ABB2BF"/>
</svg>
